<svg width="104" height="108" viewBox="0 0 104 108" fill="none" xmlns="http://www.w3.org/2000/svg">
    <path d="M10.3196 100.553C14.2258 101.018 17.8453 101.362 21.4382 101.904C23.4387 102.211 25.3966 102.787 27.3762 103.349C28.6958 103.724 30.0161 104.339 29.6226 106.061C29.2051 107.889 27.7243 107.976 26.2294 107.802C23.3883 107.451 20.5848 107.015 17.7436 106.664C13.5833 106.178 9.44516 105.919 5.26846 106.557C1.80227 107.08 -0.341263 104.484 1.37361 101.51C4.80333 95.5616 6.98868 89.0711 10.1588 83.0453C10.592 82.2012 11.0322 80.8409 12.2926 81.313C13.2935 81.7075 12.8774 82.9622 12.7063 83.7922C12.0168 87.2957 11.222 90.7753 10.4839 94.2492C10.369 94.8331 9.9407 95.4936 10.458 95.9812C11.1269 96.6143 11.7796 96.0235 12.3897 95.7003C24.5074 89.4394 36.8014 83.4589 48.0291 75.5901C55.2471 70.5422 61.8744 64.842 66.4488 57.121C68.0211 54.4472 69.1309 51.6126 69.4267 48.537C69.5245 47.5425 69.8135 46.2772 68.9608 45.6392C67.9619 44.9124 67.1104 46.0495 66.2629 46.522C57.9251 51.1298 49.1296 54.0989 39.4698 53.7281C35.64 53.5765 31.9818 52.8353 28.828 50.4528C24.9189 47.4913 24.0908 43.3462 26.6596 39.1432C29.2284 34.9401 33.1578 32.4706 37.6457 30.794C45.9275 27.7264 54.2875 26.9875 62.7054 30.3662C65.2805 31.3967 67.7833 32.7435 69.515 34.876C71.6912 37.572 73.3381 36.838 75.5337 34.9163C83.121 28.2517 89.1435 20.343 94.4323 11.8419C96.4223 8.63472 98.3907 5.4411 100.478 2.2931C101.017 1.47296 101.597 -0.0956859 102.988 0.77593C104.206 1.51563 103.357 2.80134 103.068 3.82615C103.044 3.93159 103.006 4.0154 102.947 4.11283C94.9894 16.8497 88.5912 30.7738 76.121 40.1159C74.8718 41.0515 74.1333 41.937 74.5181 43.6516C75.9482 49.8567 74.4556 55.5807 71.2759 60.9202C65.2045 71.1472 56.1289 78.1753 46.0749 83.9821C35.0223 90.3563 23.4076 95.5487 11.38 99.7964C11.1154 99.9025 10.897 100.13 10.3628 100.526L10.3196 100.553ZM34.6087 37.1274C33.4323 37.9872 32.2744 38.6847 31.3034 39.5357C27.573 42.753 28.141 46.5801 32.656 48.5888C34.9068 49.5823 37.3372 49.9513 39.7831 50.0094C47.3047 50.1888 54.1721 47.8897 60.8049 44.5942C63.0995 43.4531 66.9789 42.8211 66.8274 40.3277C66.6482 37.5506 63.1154 36.0985 60.4183 34.8738C59.7825 34.581 59.1036 34.3155 58.4222 34.1417C50.0693 32.0165 42.1291 33.1838 34.6438 37.1355L34.6087 37.1274Z"
          fill="#E53888" fill-opacity="0.9"/>
</svg>
