<svg width="262" height="264" viewBox="0 0 262 264" fill="none" xmlns="http://www.w3.org/2000/svg">
    <circle cx="131.745" cy="124.529" r="88.7449" fill="#E53888" fill-opacity="0.9"/>
    <path fill-rule="evenodd" clip-rule="evenodd"
          d="M154.411 105.173L132.461 96.0726C131.911 95.8447 131.293 95.8446 130.743 96.0726L108.793 105.173C107.957 105.519 107.412 106.334 107.412 107.238V118.301C107.412 133.533 116.632 147.234 130.755 152.991C131.298 153.212 131.906 153.212 132.448 152.991C146.572 147.234 155.792 133.533 155.792 118.301V107.238C155.792 106.334 155.247 105.519 154.411 105.173ZM130.302 127.641L141.619 116.341C142.647 115.315 144.314 115.314 145.343 116.341C146.371 117.368 146.371 119.033 145.342 120.059L132.164 133.218C131.135 134.245 129.468 134.245 128.44 133.218L121.082 125.871C120.054 124.844 120.054 123.18 121.082 122.153C122.11 121.126 123.777 121.126 124.806 122.153L130.302 127.641Z"
          fill="white"/>
    <circle cx="249.058" cy="50.0979" r="12.8823" fill="#E53888" fill-opacity="0.9"/>
    <circle cx="65.8427" cy="250.49" r="12.8823" fill="#E53888" fill-opacity="0.9"/>
    <circle cx="224.009" cy="219.715" r="6.44116" fill="#E53888" fill-opacity="0.9"/>
    <circle cx="17.8918" cy="135.264" r="6.44116" fill="#E53888" fill-opacity="0.9"/>
    <circle cx="12.8823" cy="12.8823" r="12.8823" fill="#E53888" fill-opacity="0.9"/>
</svg>
